<svg xmlns="http://www.w3.org/2000/svg" viewBox="0 0 1920 1080"><g transform="
          rotate(28 960 540) 
          translate(-688.8611562991571 -387.48440041827587)
          scale(1.7175637044782885)
        "><rect width="1920" height="1080" fill="rgb(184, 171, 255)"></rect><g transform="translate(0, 0)"><path fill="rgb(105, 86, 199)" fill-opacity="1" d="M0,529.415L106.667,525.113C213.333,520.81,426.667,512.206,640,510.872C853.333,509.538,1066.667,515.475,1280,516.142C1493.333,516.81,1706.667,512.208,1813.333,509.907L1920,507.607L1920,1080L1813.333,1080C1706.667,1080,1493.333,1080,1280,1080C1066.667,1080,853.333,1080,640,1080C426.667,1080,213.333,1080,106.667,1080L0,1080Z"></path></g><g transform="translate(0, 540)"><path fill="rgb(26, 0, 143)" fill-opacity="1" d="M0,176.809L106.667,222.629C213.333,268.45,426.667,360.091,640,332.004C853.333,303.917,1066.667,156.103,1280,147.721C1493.333,139.338,1706.667,270.387,1813.333,335.911L1920,401.435L1920,540L1813.333,540C1706.667,540,1493.333,540,1280,540C1066.667,540,853.333,540,640,540C426.667,540,213.333,540,106.667,540L0,540Z"></path></g></g></svg>